<?xml version="1.0" encoding="UTF-8"?>
<svg width="300" height="600" viewBox="0 0 300 600" xmlns="http://www.w3.org/2000/svg">
  <!-- Bus outline -->
  <rect x="20" y="20" width="260" height="560" rx="30" ry="30" 
        fill="#f0f0f0" stroke="#333" stroke-width="3"/>
  
  <!-- Driver area -->
  <rect x="40" y="40" width="220" height="60" rx="10" ry="10" 
        fill="#e0e0e0" stroke="#666" stroke-width="2"/>
  <text x="150" y="75" text-anchor="middle" font-family="Arial" font-size="14" fill="#333">
    Tài xế
  </text>
  
  <!-- Door -->
  <rect x="25" y="120" width="10" height="40" fill="#666"/>
  <text x="45" y="145" font-family="Arial" font-size="12" fill="#666">Cửa</text>
  
  <!-- Seat rows -->
  <!-- Row 1 -->
  <circle cx="80" cy="180" r="20" fill="#4CAF50" stroke="#333" stroke-width="2"/>
  <text x="80" y="185" text-anchor="middle" font-family="Arial" font-size="12" fill="white">A1</text>
  
  <circle cx="150" cy="180" r="20" fill="#4CAF50" stroke="#333" stroke-width="2"/>
  <text x="150" y="185" text-anchor="middle" font-family="Arial" font-size="12" fill="white">A2</text>
  
  <circle cx="220" cy="180" r="20" fill="#4CAF50" stroke="#333" stroke-width="2"/>
  <text x="220" y="185" text-anchor="middle" font-family="Arial" font-size="12" fill="white">A3</text>
  
  <!-- Row 2 -->
  <circle cx="80" cy="230" r="20" fill="#4CAF50" stroke="#333" stroke-width="2"/>
  <text x="80" y="235" text-anchor="middle" font-family="Arial" font-size="12" fill="white">A4</text>
  
  <circle cx="150" cy="230" r="20" fill="#4CAF50" stroke="#333" stroke-width="2"/>
  <text x="150" y="235" text-anchor="middle" font-family="Arial" font-size="12" fill="white">A5</text>
  
  <circle cx="220" cy="230" r="20" fill="#4CAF50" stroke="#333" stroke-width="2"/>
  <text x="220" y="235" text-anchor="middle" font-family="Arial" font-size="12" fill="white">A6</text>
  
  <!-- Row 3 -->
  <circle cx="80" cy="280" r="20" fill="#4CAF50" stroke="#333" stroke-width="2"/>
  <text x="80" y="285" text-anchor="middle" font-family="Arial" font-size="12" fill="white">A7</text>
  
  <circle cx="150" cy="280" r="20" fill="#4CAF50" stroke="#333" stroke-width="2"/>
  <text x="150" y="285" text-anchor="middle" font-family="Arial" font-size="12" fill="white">A8</text>
  
  <circle cx="220" cy="280" r="20" fill="#4CAF50" stroke="#333" stroke-width="2"/>
  <text x="220" y="285" text-anchor="middle" font-family="Arial" font-size="12" fill="white">A9</text>
  
  <!-- Row 4 -->
  <circle cx="80" cy="330" r="20" fill="#4CAF50" stroke="#333" stroke-width="2"/>
  <text x="80" y="335" text-anchor="middle" font-family="Arial" font-size="12" fill="white">A10</text>
  
  <circle cx="150" cy="330" r="20" fill="#4CAF50" stroke="#333" stroke-width="2"/>
  <text x="150" y="335" text-anchor="middle" font-family="Arial" font-size="12" fill="white">A11</text>
  
  <circle cx="220" cy="330" r="20" fill="#4CAF50" stroke="#333" stroke-width="2"/>
  <text x="220" y="335" text-anchor="middle" font-family="Arial" font-size="12" fill="white">A12</text>
  
  <!-- Row 5 -->
  <circle cx="80" cy="380" r="20" fill="#4CAF50" stroke="#333" stroke-width="2"/>
  <text x="80" y="385" text-anchor="middle" font-family="Arial" font-size="12" fill="white">A13</text>
  
  <circle cx="150" cy="380" r="20" fill="#4CAF50" stroke="#333" stroke-width="2"/>
  <text x="150" y="385" text-anchor="middle" font-family="Arial" font-size="12" fill="white">A14</text>
  
  <circle cx="220" cy="380" r="20" fill="#4CAF50" stroke="#333" stroke-width="2"/>
  <text x="220" y="385" text-anchor="middle" font-family="Arial" font-size="12" fill="white">A15</text>
  
  <!-- Row 6 -->
  <circle cx="150" cy="430" r="20" fill="#4CAF50" stroke="#333" stroke-width="2"/>
  <text x="150" y="435" text-anchor="middle" font-family="Arial" font-size="12" fill="white">A16</text>
  
  <!-- Legend -->
  <text x="50" y="520" font-family="Arial" font-size="14" font-weight="bold" fill="#333">Chú thích:</text>
  
  <circle cx="70" cy="540" r="12" fill="#4CAF50" stroke="#333" stroke-width="2"/>
  <text x="90" y="545" font-family="Arial" font-size="12" fill="#333">Ghế trống</text>
  
  <circle cx="70" cy="560" r="12" fill="#f44336" stroke="#333" stroke-width="2"/>
  <text x="90" y="565" font-family="Arial" font-size="12" fill="#333">Ghế đã đặt</text>
</svg>
